<svg aria-hidden="true" style="position: absolute; width: 0; height: 0; overflow: hidden;" version="1.1" xmlns="http://www.w3.org/2000/svg" xmlns:xlink="http://www.w3.org/1999/xlink">
<defs>
<symbol id="star" viewBox="0 0 35 32">
<path stroke-linejoin="miter" stroke-linecap="butt" stroke-miterlimit="4" stroke-width="1.6" d="M20.791 12.408l0.18 0.553h10.906l-8.824 6.411 3.37 10.372-8.823-6.409-0.47 0.341-8.355 6.069 3.372-10.372-8.823-6.411h10.906l3.37-10.373 3.191 9.82z"></path>
</symbol>
<symbol id="location" viewBox="0 0 32 32">
<path stroke-linejoin="miter" stroke-linecap="butt" stroke-miterlimit="4" stroke-width="2.9091" d="M27.636 16c0 6.427-5.21 11.636-11.636 11.636s-11.636-5.21-11.636-11.636c0-6.427 5.21-11.636 11.636-11.636s11.636 5.21 11.636 11.636z"></path>
<path d="M14.545 0h2.909v5.818h-2.909v-5.818z"></path>
<path d="M14.545 26.182h2.909v5.818h-2.909v-5.818z"></path>
<path d="M5.818 14.545v2.909h-5.818v-2.909h5.818z"></path>
<path d="M32 14.545v2.909h-5.818v-2.909h5.818z"></path>
</symbol>
<symbol id="close" viewBox="0 0 32 32">
<path stroke-linejoin="miter" stroke-linecap="butt" stroke-miterlimit="4" stroke-width="4" d="M2.667 2.667l26.667 26.667M2.667 29.333l26.667-26.667"></path>
</symbol>
<symbol id="arrow" viewBox="0 0 22 32">
<path stroke-linejoin="miter" stroke-linecap="butt" stroke-miterlimit="4" stroke-width="4.8" d="M3.2 3.2l12.8 12.8-12.8 12.8"></path>
</symbol>
<symbol id="sunset" viewBox="0 0 32 32">
<path d="M16 5.103c0.518 0 0.937-0.42 0.937-0.938v-3.228c0-0.518-0.42-0.938-0.937-0.938s-0.938 0.42-0.938 0.938v3.228c0 0.518 0.42 0.938 0.938 0.938z"></path>
<path d="M31.062 15.063h-3.228c-0.518 0-0.937 0.42-0.937 0.938s0.42 0.937 0.937 0.937h3.228c0.518 0 0.938-0.42 0.938-0.937s-0.42-0.938-0.938-0.938z"></path>
<path d="M5.103 16c0-0.518-0.42-0.938-0.938-0.938h-3.228c-0.518 0-0.938 0.42-0.938 0.938s0.42 0.937 0.938 0.937h3.228c0.518 0 0.938-0.42 0.938-0.937z"></path>
<path d="M24.369 8.569c0.24 0 0.48-0.092 0.663-0.275l2.282-2.282c0.366-0.366 0.366-0.96 0-1.326s-0.96-0.366-1.326 0l-2.282 2.282c-0.366 0.366-0.366 0.96 0 1.326 0.183 0.183 0.423 0.275 0.663 0.275z"></path>
<path d="M25.032 23.705c-0.366-0.366-0.96-0.366-1.326 0s-0.366 0.96 0 1.326l2.282 2.282c0.183 0.183 0.423 0.275 0.663 0.275s0.48-0.092 0.663-0.275c0.366-0.366 0.366-0.96 0-1.326l-2.282-2.282z"></path>
<path d="M6.969 23.705l-2.282 2.282c-0.366 0.366-0.366 0.96 0 1.326 0.183 0.183 0.423 0.275 0.663 0.275s0.48-0.092 0.663-0.275l2.282-2.282c0.366-0.366 0.366-0.96 0-1.326s-0.96-0.366-1.326 0z"></path>
<path d="M6.969 8.294c0.183 0.183 0.423 0.275 0.663 0.275s0.48-0.092 0.663-0.275c0.366-0.366 0.366-0.96 0-1.326l-2.282-2.282c-0.366-0.366-0.96-0.366-1.326 0s-0.366 0.96 0 1.326l2.282 2.282z"></path>
<path d="M20.182 5.937c0.118 0.049 0.24 0.072 0.359 0.072 0.368 0 0.716-0.217 0.866-0.578l1.239-2.981c0.199-0.478-0.028-1.027-0.506-1.226s-1.027 0.028-1.225 0.506l-1.239 2.981c-0.199 0.478 0.028 1.027 0.506 1.225z"></path>
<path d="M30.269 20.915l-2.98-1.239c-0.478-0.199-1.027 0.028-1.225 0.506s0.028 1.027 0.506 1.225l2.98 1.239c0.118 0.049 0.24 0.072 0.359 0.072 0.368 0 0.716-0.217 0.866-0.578 0.199-0.478-0.028-1.027-0.506-1.226z"></path>
<path d="M11.818 26.063c-0.478-0.199-1.027 0.028-1.226 0.506l-1.239 2.98c-0.199 0.478 0.028 1.027 0.506 1.225 0.118 0.049 0.239 0.072 0.359 0.072 0.367 0 0.716-0.217 0.866-0.578l1.239-2.98c0.199-0.478-0.028-1.027-0.506-1.225z"></path>
<path d="M1.731 11.085l2.981 1.239c0.118 0.049 0.239 0.072 0.359 0.072 0.367 0 0.716-0.217 0.866-0.578 0.199-0.478-0.028-1.027-0.506-1.226l-2.981-1.239c-0.478-0.199-1.027 0.028-1.226 0.506s0.028 1.027 0.506 1.226z"></path>
<path d="M26.073 11.841c0.149 0.362 0.499 0.58 0.867 0.58 0.119 0 0.24-0.023 0.357-0.071l2.983-1.232c0.479-0.198 0.706-0.746 0.509-1.224s-0.746-0.706-1.224-0.509l-2.983 1.232c-0.479 0.198-0.706 0.746-0.509 1.224z"></path>
<path d="M21.383 26.582c-0.198-0.479-0.746-0.706-1.224-0.509s-0.706 0.746-0.509 1.224l1.232 2.984c0.149 0.361 0.499 0.58 0.867 0.58 0.119 0 0.24-0.023 0.357-0.071 0.479-0.198 0.707-0.746 0.509-1.224l-1.232-2.983z"></path>
<path d="M5.927 20.158c-0.198-0.479-0.746-0.706-1.224-0.509l-2.983 1.232c-0.479 0.198-0.706 0.746-0.509 1.224 0.149 0.362 0.499 0.58 0.867 0.58 0.119 0 0.24-0.023 0.357-0.071l2.983-1.232c0.479-0.198 0.706-0.746 0.509-1.224z"></path>
<path d="M10.617 5.419c0.149 0.362 0.499 0.58 0.867 0.58 0.119 0 0.24-0.023 0.357-0.071 0.479-0.198 0.706-0.746 0.509-1.224l-1.232-2.983c-0.198-0.479-0.746-0.706-1.224-0.509s-0.706 0.746-0.509 1.224l1.232 2.983z"></path>
<path d="M17.15 28.582l-0.212 0.212v-4.158c4.351-0.469 7.75-4.163 7.75-8.637 0-4.79-3.897-8.687-8.688-8.687s-8.688 3.897-8.688 8.687c0 4.474 3.399 8.168 7.75 8.637v4.213l-0.289-0.281c-0.371-0.361-0.965-0.352-1.326 0.019s-0.352 0.965 0.019 1.326l1.875 1.822c0.182 0.177 0.418 0.265 0.653 0.265 0.24 0 0.48-0.092 0.663-0.275l1.817-1.817c0.366-0.366 0.366-0.96 0-1.326s-0.96-0.366-1.326 0zM9.188 16c0-3.756 3.056-6.812 6.813-6.812s6.812 3.056 6.812 6.812c0 3.438-2.561 6.289-5.875 6.748v-2.225c0-0.518-0.42-0.937-0.937-0.937s-0.938 0.42-0.938 0.937v2.225c-3.314-0.458-5.875-3.309-5.875-6.748z"></path>
</symbol>
<symbol id="sunrise" viewBox="0 0 32 32">
<path d="M16 5.103c0.518 0 0.937-0.42 0.937-0.938v-3.228c0-0.518-0.42-0.938-0.937-0.938s-0.938 0.42-0.938 0.938v3.228c0 0.518 0.42 0.938 0.938 0.938z"></path>
<path d="M31.062 15.063h-3.228c-0.518 0-0.937 0.42-0.937 0.938s0.42 0.937 0.937 0.937h3.228c0.518 0 0.938-0.42 0.938-0.937s-0.42-0.938-0.938-0.938z"></path>
<path d="M5.103 16c0-0.518-0.42-0.938-0.938-0.938h-3.228c-0.518 0-0.938 0.42-0.938 0.938s0.42 0.937 0.938 0.937h3.228c0.518 0 0.938-0.42 0.938-0.937z"></path>
<path d="M24.369 8.569c0.24 0 0.48-0.092 0.663-0.275l2.282-2.282c0.366-0.366 0.366-0.96 0-1.326s-0.96-0.366-1.326 0l-2.282 2.282c-0.366 0.366-0.366 0.96 0 1.326 0.183 0.183 0.423 0.275 0.663 0.275z"></path>
<path d="M25.032 23.705c-0.366-0.366-0.96-0.366-1.326 0s-0.366 0.96 0 1.326l2.282 2.282c0.183 0.183 0.423 0.275 0.663 0.275s0.48-0.092 0.663-0.275c0.366-0.366 0.366-0.96 0-1.326l-2.282-2.282z"></path>
<path d="M6.969 23.705l-2.282 2.282c-0.366 0.366-0.366 0.96 0 1.326 0.183 0.183 0.423 0.275 0.663 0.275s0.48-0.092 0.663-0.275l2.282-2.282c0.366-0.366 0.366-0.96 0-1.326s-0.96-0.366-1.326 0z"></path>
<path d="M6.969 8.294c0.183 0.183 0.423 0.275 0.663 0.275s0.48-0.092 0.663-0.275c0.366-0.366 0.366-0.96 0-1.326l-2.282-2.282c-0.366-0.366-0.96-0.366-1.326 0s-0.366 0.96 0 1.326l2.282 2.282z"></path>
<path d="M20.182 5.937c0.118 0.049 0.24 0.072 0.359 0.072 0.368 0 0.716-0.217 0.866-0.578l1.239-2.981c0.199-0.478-0.028-1.027-0.506-1.226s-1.027 0.028-1.225 0.506l-1.239 2.981c-0.199 0.478 0.028 1.027 0.506 1.225z"></path>
<path d="M30.269 20.915l-2.98-1.239c-0.478-0.199-1.027 0.028-1.225 0.506s0.028 1.027 0.506 1.225l2.98 1.239c0.118 0.049 0.24 0.072 0.36 0.072 0.367 0 0.716-0.217 0.866-0.578 0.199-0.478-0.028-1.027-0.506-1.225z"></path>
<path d="M11.818 26.063c-0.478-0.199-1.027 0.028-1.226 0.506l-1.239 2.98c-0.199 0.478 0.028 1.027 0.506 1.225 0.118 0.049 0.239 0.072 0.359 0.072 0.367 0 0.716-0.217 0.866-0.578l1.239-2.98c0.199-0.478-0.028-1.027-0.506-1.225z"></path>
<path d="M1.731 11.085l2.98 1.239c0.118 0.049 0.239 0.072 0.359 0.072 0.367 0 0.716-0.217 0.866-0.578 0.199-0.478-0.028-1.027-0.506-1.226l-2.981-1.239c-0.478-0.199-1.027 0.028-1.226 0.506s0.028 1.027 0.506 1.226z"></path>
<path d="M26.073 11.841c0.149 0.362 0.499 0.58 0.867 0.58 0.119 0 0.24-0.023 0.357-0.071l2.983-1.232c0.479-0.198 0.706-0.746 0.509-1.224s-0.746-0.706-1.224-0.509l-2.984 1.232c-0.479 0.198-0.706 0.746-0.509 1.224z"></path>
<path d="M21.383 26.582c-0.198-0.479-0.746-0.706-1.224-0.509s-0.706 0.746-0.509 1.224l1.232 2.983c0.149 0.362 0.499 0.58 0.867 0.58 0.119 0 0.24-0.023 0.357-0.071 0.479-0.198 0.706-0.746 0.509-1.224l-1.232-2.983z"></path>
<path d="M5.927 20.159c-0.198-0.479-0.746-0.706-1.224-0.509l-2.983 1.232c-0.479 0.198-0.706 0.746-0.509 1.224 0.149 0.362 0.499 0.58 0.867 0.58 0.119 0 0.24-0.023 0.357-0.071l2.983-1.232c0.479-0.198 0.706-0.746 0.509-1.224z"></path>
<path d="M10.617 5.419c0.149 0.362 0.499 0.58 0.867 0.58 0.119 0 0.24-0.023 0.357-0.071 0.479-0.198 0.706-0.746 0.509-1.224l-1.232-2.983c-0.198-0.479-0.746-0.706-1.224-0.509s-0.706 0.746-0.509 1.224l1.232 2.983z"></path>
<path d="M16.937 24.637c4.351-0.469 7.75-4.163 7.75-8.637 0-4.79-3.897-8.688-8.688-8.688s-8.688 3.897-8.688 8.688c0 4.473 3.399 8.168 7.75 8.637v6.426c0 0.518 0.42 0.937 0.938 0.937s0.937-0.42 0.937-0.937v-6.426zM9.188 16c0-3.756 3.056-6.813 6.813-6.813s6.812 3.056 6.812 6.813c0 3.438-2.561 6.289-5.875 6.748v-3.578l0.212 0.212c0.366 0.366 0.96 0.366 1.326 0s0.366-0.96 0-1.326l-1.817-1.817c-0.362-0.362-0.949-0.367-1.316-0.009l-1.875 1.821c-0.371 0.361-0.38 0.954-0.019 1.326 0.184 0.189 0.428 0.284 0.672 0.284 0.235 0 0.471-0.088 0.653-0.265l0.289-0.281v3.633c-3.314-0.458-5.875-3.31-5.875-6.748z"></path>
</symbol>
<symbol id="barometer" viewBox="0 0 32 32">
<path d="M18.489 4.12c0.206-0.391 0.324-0.836 0.324-1.308 0-1.551-1.262-2.813-2.813-2.813s-2.813 1.262-2.813 2.813c0 0.472 0.117 0.917 0.324 1.308-6.564 1.178-11.561 6.931-11.561 13.829 0 7.747 6.303 14.050 14.050 14.050s14.050-6.303 14.050-14.050c0-6.898-4.997-12.651-11.561-13.829zM16 1.875c0.517 0 0.938 0.421 0.938 0.938s-0.421 0.938-0.938 0.938c-0.517 0-0.938-0.421-0.938-0.938s0.421-0.938 0.938-0.938zM16 30.125c-6.713 0-12.175-5.462-12.175-12.175s5.462-12.175 12.175-12.175 12.175 5.462 12.175 12.175c0 6.713-5.462 12.175-12.175 12.175z"></path>
<path d="M23.332 10.69c-0.013-0.015-0.026-0.030-0.040-0.044s-0.031-0.028-0.047-0.042c-1.866-1.84-4.426-2.978-7.245-2.978-2.832 0-5.4 1.146-7.267 2.998-0.008 0.008-0.017 0.014-0.025 0.022-0.007 0.007-0.012 0.014-0.019 0.021-1.862 1.869-3.014 4.444-3.014 7.284 0 0.518 0.42 0.937 0.938 0.937h1.063c0.518 0 0.937-0.42 0.937-0.937s-0.42-0.938-0.938-0.938h-0.073c0.181-1.631 0.828-3.124 1.805-4.342l0.052 0.052c0.183 0.183 0.423 0.275 0.663 0.275s0.48-0.091 0.663-0.275c0.366-0.366 0.366-0.96 0-1.326l-0.050-0.050c1.215-0.971 2.703-1.614 4.328-1.794v0.073c0 0.518 0.42 0.938 0.938 0.938s0.938-0.42 0.938-0.938v-0.073c1.625 0.18 3.112 0.824 4.327 1.795l-0.050 0.050c-0.366 0.366-0.366 0.96 0 1.326 0.183 0.183 0.423 0.275 0.663 0.275s0.48-0.091 0.663-0.275l0.051-0.051c0.975 1.214 1.621 2.703 1.804 4.329h-0.084c-0.518 0-0.937 0.42-0.937 0.937s0.42 0.938 0.937 0.938c0 0 1.076-0 1.076-0 0.518-0.001 0.937-0.421 0.936-0.939-0.004-2.822-1.147-5.383-2.993-7.246z"></path>
<path d="M20.251 13.698c-0.366-0.366-0.96-0.366-1.326 0l-3.915 3.915c-0.433-0.207-0.917-0.303-1.407-0.268-0.517 0.036-0.906 0.484-0.87 1s0.484 0.906 1.001 0.87c0.271-0.019 0.536 0.080 0.728 0.272 0.189 0.189 0.289 0.45 0.273 0.717-0.030 0.517 0.365 0.96 0.882 0.99 0.018 0.001 0.037 0.002 0.055 0.002 0.493-0 0.906-0.385 0.935-0.883 0.028-0.478-0.069-0.95-0.271-1.374l3.915-3.915c0.366-0.366 0.366-0.96 0-1.326z"></path>
<path d="M21.375 24.688h-10.75c-0.518 0-0.938 0.42-0.938 0.937s0.42 0.938 0.938 0.938h10.75c0.518 0 0.937-0.42 0.937-0.938s-0.42-0.937-0.937-0.937z"></path>
</symbol>
<symbol id="humidity" viewBox="0 0 32 32">
<path d="M28.62 9.399c-0.597-1.021-1.234-1.986-1.796-2.718-0.828-1.079-1.316-1.461-1.868-1.461-0.523 0-0.948 0.366-1.426 0.916-0.352 0.405-0.771 0.966-1.212 1.624-0.632 0.942-1.24 1.969-1.759 2.965-0.556-1.066-1.076-1.985-1.461-2.643-1.203-2.059-2.486-4.001-3.613-5.47-1.848-2.409-2.542-2.61-3.048-2.61s-1.201 0.202-3.049 2.611c-1.127 1.469-2.41 3.411-3.612 5.47-1.446 2.474-4.808 8.639-4.808 12.451 0 6.324 5.145 11.469 11.469 11.469 5.934 0 10.829-4.529 11.411-10.312 0.364 0.067 0.734 0.102 1.108 0.102 3.35 0 6.075-2.725 6.075-6.075 0-1.906-1.511-4.776-2.411-6.316zM12.438 30.125c-5.29 0-9.594-4.304-9.594-9.594 0-2.233 1.6-6.358 4.279-11.034 2.392-4.173 4.524-6.857 5.315-7.519 0.791 0.662 2.923 3.345 5.315 7.519 2.679 4.676 4.279 8.801 4.279 11.034 0 5.29-4.304 9.594-9.594 9.594zM24.956 19.915c-0.371 0-0.736-0.049-1.090-0.143-0.207-2.066-1.186-4.634-2.256-6.925 1.042-2.328 2.589-4.622 3.345-5.498 0.477 0.55 1.322 1.709 2.262 3.37 1.214 2.147 1.939 4.014 1.939 4.995 0 2.316-1.884 4.2-4.2 4.2z"></path>
<path d="M15.011 16.073c-0.448-0.259-1.022-0.105-1.281 0.343l-4.21 7.293c-0.259 0.448-0.105 1.022 0.343 1.281 0.148 0.085 0.309 0.126 0.468 0.126 0.324 0 0.639-0.168 0.813-0.469l4.21-7.293c0.259-0.448 0.105-1.022-0.343-1.281z"></path>
<path d="M10.094 17.937c0-0.516-0.421-0.937-0.938-0.937s-0.938 0.421-0.938 0.937c0 0.516 0.421 0.938 0.938 0.938s0.938-0.421 0.938-0.938z"></path>
<path d="M15.406 22.312c-0.516 0-0.938 0.421-0.938 0.937s0.421 0.938 0.938 0.938c0.516 0 0.938-0.421 0.938-0.938s-0.421-0.937-0.938-0.937z"></path>
</symbol>
<symbol id="wind" viewBox="0 0 32 32">
<path d="M25.316 2.643c-1.516 0-3.002 0.523-4.184 1.472-0.404 0.324-0.468 0.914-0.144 1.318s0.914 0.468 1.318 0.144c0.851-0.683 1.92-1.059 3.011-1.059 2.652 0 4.809 2.157 4.809 4.809s-2.158 4.809-4.809 4.809h-17.628c-0.518 0-0.938 0.42-0.938 0.938s0.42 0.938 0.938 0.938h17.628c3.686 0 6.684-2.999 6.684-6.684s-2.999-6.684-6.684-6.684z"></path>
<path d="M5.891 12.268h10.015c0.518 0 0.937-0.42 0.937-0.938s-0.42-0.938-0.937-0.938h-10.015c-0.518 0-0.938 0.42-0.938 0.938s0.42 0.938 0.938 0.938z"></path>
<path d="M15.643 17.893h-14.706c-0.518 0-0.938 0.42-0.938 0.938s0.42 0.937 0.938 0.937h14.706c2.126 0 3.857 1.73 3.857 3.857s-1.73 3.857-3.857 3.857c-0.875 0-1.732-0.302-2.414-0.849-0.404-0.324-0.994-0.26-1.318 0.144s-0.26 0.994 0.144 1.318c1.014 0.814 2.288 1.262 3.588 1.262 3.16 0 5.732-2.571 5.732-5.732s-2.571-5.732-5.732-5.732z"></path>
<path d="M0.938 12.268h1.265c0.518 0 0.938-0.42 0.938-0.938s-0.42-0.938-0.938-0.938h-1.265c-0.518 0-0.938 0.42-0.938 0.938s0.42 0.938 0.938 0.938z"></path>
<path d="M12.25 22.563c0-0.518-0.42-0.938-0.938-0.938h-5.625c-0.518 0-0.938 0.42-0.938 0.938s0.42 0.937 0.938 0.937h5.625c0.518 0 0.938-0.42 0.938-0.937z"></path>
</symbol>
</defs>
</svg>
